<?xml version="1.0" encoding="utf-8"?>
<!-- Generator: Adobe Illustrator 16.0.0, SVG Export Plug-In . SVG Version: 6.00 Build 0)  -->
<!DOCTYPE svg PUBLIC "-//W3C//DTD SVG 1.1//EN" "http://www.w3.org/Graphics/SVG/1.1/DTD/svg11.dtd">
<svg version="1.1" id="Layer_1" xmlns="http://www.w3.org/2000/svg" xmlns:xlink="http://www.w3.org/1999/xlink" x="0px" y="0px"
	 width="152.299px" height="95.689px" viewBox="0 0 152.299 95.689" enable-background="new 0 0 152.299 95.689"
	 xml:space="preserve">
<path fill="#AEADAE" d="M149.304,10.196c-0.004-4.208-3.373-7.624-7.51-7.624c-0.004,0-0.008,0-0.013,0L10.265,2.755
	C8.255,2.758,6.373,3.554,4.954,4.999c-1.416,1.445-2.195,3.361-2.19,5.399l0.101,75.107c0.004,2.039,0.788,3.96,2.207,5.396
	c1.419,1.437,3.302,2.229,5.303,2.229c0.004,0,0.008,0,0.013,0l131.518-0.186c4.14,0,7.505-3.433,7.501-7.641L149.304,10.196z
	 M133.543,10.217L76.089,50.808L18.528,10.377L133.543,10.217z M100.387,58.465l34.074,26.859L17.61,85.488l34.285-27.023
	c1.638-1.289,1.938-3.689,0.666-5.354c-1.272-1.666-3.631-1.969-5.27-0.678l-36.921,29.1l-0.093-67.668l63.684,44.726
	c0.641,0.451,1.39,0.674,2.136,0.674c0.75,0,1.499-0.228,2.144-0.682l63.559-44.902l0.097,67.839l-36.909-29.087
	c-1.635-1.291-3.997-0.988-5.27,0.678C98.45,54.775,98.745,57.176,100.387,58.465z"/>
</svg>
